<?xml version="1.0" encoding="utf-8"?>
<svg width="150px" height="150px" viewBox="0 0 24 24" fill="none" xmlns="http://www.w3.org/2000/svg">
<rect x="11.5" y="6.5" width="4" height="4" rx="0.5" stroke="white" stroke-width="1.5"/>
<path d="M16 16L19 19" stroke="white" stroke-width="1.5" stroke-linecap="round"/>
<circle cx="11.5" cy="11.5" r="4.75" stroke="white" stroke-width="1.5"/>
<path d="M6 19.5C6 17.0147 7.79086 15 10 15C12.2091 15 14 17.0147 14 19.5C14 21.9853 12.2091 24 10 24C7.79086 24 6 21.9853 6 19.5Z" fill="none" stroke="white" stroke-width="1.5"/>
<circle cx="10" cy="19.5" r="1.5" fill="white"/>
<path d="M11 6V5C11 3.89543 11.8954 3 13 3C14.1046 3 15 3.89543 15 5V6" stroke="white" stroke-width="1.5" stroke-linecap="round"/>
<path d="M18 11V6C18 4.89543 17.1046 4 16 4H8C6.89543 4 6 4.89543 6 6V11" stroke="white" stroke-width="1.5" stroke-linecap="round"/>
<path d="M22 13.5C22 13.7761 21.7761 14 21.5 14H2.5C2.22386 14 2 13.7761 2 13.5V11.5C2 11.2239 2.22386 11 2.5 11H21.5C21.7761 11 22 11.2239 22 11.5V13.5Z" fill="white"/>
</svg>
